<?xml version="1.0" encoding="UTF-8"?>
<svg version="1.1" xmlns="http://www.w3.org/2000/svg" width="320" height="320">
<path d="M0 0 C13.2 0 26.4 0 40 0 C40 3.3 40 6.6 40 10 C49.9 10 59.8 10 70 10 C70 13.3 70 16.6 70 20 C76.6 20 83.2 20 90 20 C90 23.3 90 26.6 90 30 C96.6 30 103.2 30 110 30 C110 26.7 110 23.4 110 20 C116.6 20 123.2 20 130 20 C130 16.7 130 13.4 130 10 C139.9 10 149.8 10 160 10 C160 6.7 160 3.4 160 0 C173.2 0 186.4 0 200 0 C200 3.3 200 6.6 200 10 C203.3 10 206.6 10 210 10 C210 13.3 210 16.6 210 20 C213.3 20 216.6 20 220 20 C220 23.3 220 26.6 220 30 C223.3 30 226.6 30 230 30 C230 33.3 230 36.6 230 40 C233.3 40 236.6 40 240 40 C240 46.6 240 53.2 240 60 C243.3 60 246.6 60 250 60 C250 66.6 250 73.2 250 80 C253.3 80 256.6 80 260 80 C260 111.35 260 142.7 260 175 C256.7 175 253.4 175 250 175 C250 181.6 250 188.2 250 195 C246.7 195 243.4 195 240 195 C240 201.6 240 208.2 240 215 C236.7 215 233.4 215 230 215 C230 221.6 230 228.2 230 235 C226.7 235 223.4 235 220 235 C220 241.6 220 248.2 220 255 C216.7 255 213.4 255 210 255 C210 261.6 210 268.2 210 275 C206.7 275 203.4 275 200 275 C200 278.3 200 281.6 200 285 C186.8 285 173.6 285 160 285 C160 281.7 160 278.4 160 275 C156.7 275 153.4 275 150 275 C150 268.4 150 261.8 150 255 C146.7 255 143.4 255 140 255 C140 248.4 140 241.8 140 235 C136.7 235 133.4 235 130 235 C130 228.4 130 221.8 130 215 C126.7 215 123.4 215 120 215 C120 208.4 120 201.8 120 195 C106.8 195 93.6 195 80 195 C80 201.6 80 208.2 80 215 C76.7 215 73.4 215 70 215 C70 221.6 70 228.2 70 235 C66.7 235 63.4 235 60 235 C60 241.6 60 248.2 60 255 C56.7 255 53.4 255 50 255 C50 261.6 50 268.2 50 275 C46.7 275 43.4 275 40 275 C40 278.3 40 281.6 40 285 C26.8 285 13.6 285 0 285 C0 281.7 0 278.4 0 275 C-3.3 275 -6.6 275 -10 275 C-10 268.4 -10 261.8 -10 255 C-13.3 255 -16.6 255 -20 255 C-20 248.4 -20 241.8 -20 235 C-23.3 235 -26.6 235 -30 235 C-30 228.4 -30 221.8 -30 215 C-33.3 215 -36.6 215 -40 215 C-40 208.4 -40 201.8 -40 195 C-43.3 195 -46.6 195 -50 195 C-50 188.4 -50 181.8 -50 175 C-53.3 175 -56.6 175 -60 175 C-60 143.65 -60 112.3 -60 80 C-56.7 80 -53.4 80 -50 80 C-50 73.4 -50 66.8 -50 60 C-46.7 60 -43.4 60 -40 60 C-40 53.4 -40 46.8 -40 40 C-36.7 40 -33.4 40 -30 40 C-30 36.7 -30 33.4 -30 30 C-26.7 30 -23.4 30 -20 30 C-20 26.7 -20 23.4 -20 20 C-16.7 20 -13.4 20 -10 20 C-10 16.7 -10 13.4 -10 10 C-6.7 10 -3.4 10 0 10 C0 6.7 0 3.4 0 0 Z " fill="#CBDBFC" transform="translate(60,5)"/>
<path d="M0 0 C13.2 0 26.4 0 40 0 C40 3.3 40 6.6 40 10 C49.9 10 59.8 10 70 10 C70 19.9 70 29.8 70 40 C73.3 40 76.6 40 80 40 C80 43.3 80 46.6 80 50 C83.3 50 86.6 50 90 50 C90 53.3 90 56.6 90 60 C99.9 60 109.8 60 120 60 C120 56.7 120 53.4 120 50 C123.3 50 126.6 50 130 50 C130 46.7 130 43.4 130 40 C133.3 40 136.6 40 140 40 C140 36.7 140 33.4 140 30 C148.25 30 156.5 30 165 30 C165 26.7 165 23.4 165 20 C176.55 20 188.1 20 200 20 C200 24.95 200 29.9 200 35 C198.35 35 196.7 35 195 35 C195 36.65 195 38.3 195 40 C193.35 40 191.7 40 190 40 C190 41.65 190 43.3 190 45 C188.35 45 186.7 45 185 45 C185 46.65 185 48.3 185 50 C183.35 50 181.7 50 180 50 C180 51.65 180 53.3 180 55 C178.35 55 176.7 55 175 55 C175 56.65 175 58.3 175 60 C173.35 60 171.7 60 170 60 C170 63.3 170 66.6 170 70 C168.35 70 166.7 70 165 70 C165 71.65 165 73.3 165 75 C163.35 75 161.7 75 160 75 C160 76.65 160 78.3 160 80 C158.35 80 156.7 80 155 80 C155 81.65 155 83.3 155 85 C153.35 85 151.7 85 150 85 C150 86.65 150 88.3 150 90 C148.35 90 146.7 90 145 90 C145 91.65 145 93.3 145 95 C143.35 95 141.7 95 140 95 C140 96.65 140 98.3 140 100 C138.35 100 136.7 100 135 100 C135 101.65 135 103.3 135 105 C133.35 105 131.7 105 130 105 C130 106.65 130 108.3 130 110 C128.35 110 126.7 110 125 110 C125 111.65 125 113.3 125 115 C123.35 115 121.7 115 120 115 C120 116.65 120 118.3 120 120 C118.35 120 116.7 120 115 120 C115 123.3 115 126.6 115 130 C113.35 130 111.7 130 110 130 C110 131.65 110 133.3 110 135 C108.35 135 106.7 135 105 135 C105 136.65 105 138.3 105 140 C101.7 140 98.4 140 95 140 C95 138.35 95 136.7 95 135 C91.7 135 88.4 135 85 135 C85 133.35 85 131.7 85 130 C83.35 130 81.7 130 80 130 C80 128.35 80 126.7 80 125 C78.35 125 76.7 125 75 125 C75 123.35 75 121.7 75 120 C71.7 120 68.4 120 65 120 C65 118.35 65 116.7 65 115 C63.35 115 61.7 115 60 115 C60 113.35 60 111.7 60 110 C58.35 110 56.7 110 55 110 C55 108.35 55 106.7 55 105 C51.7 105 48.4 105 45 105 C45 103.35 45 101.7 45 100 C43.35 100 41.7 100 40 100 C40 98.35 40 96.7 40 95 C38.35 95 36.7 95 35 95 C35 93.35 35 91.7 35 90 C31.7 90 28.4 90 25 90 C25 88.35 25 86.7 25 85 C23.35 85 21.7 85 20 85 C20 83.35 20 81.7 20 80 C16.7 80 13.4 80 10 80 C10 81.65 10 83.3 10 85 C8.35 85 6.7 85 5 85 C5 88.3 5 91.6 5 95 C6.65 95 8.3 95 10 95 C10 96.65 10 98.3 10 100 C11.65 100 13.3 100 15 100 C15 101.65 15 103.3 15 105 C16.65 105 18.3 105 20 105 C20 106.65 20 108.3 20 110 C23.3 110 26.6 110 30 110 C30 111.65 30 113.3 30 115 C31.65 115 33.3 115 35 115 C35 116.65 35 118.3 35 120 C36.65 120 38.3 120 40 120 C40 121.65 40 123.3 40 125 C43.3 125 46.6 125 50 125 C50 126.65 50 128.3 50 130 C51.65 130 53.3 130 55 130 C55 131.65 55 133.3 55 135 C56.65 135 58.3 135 60 135 C60 136.65 60 138.3 60 140 C63.3 140 66.6 140 70 140 C70 141.65 70 143.3 70 145 C71.65 145 73.3 145 75 145 C75 146.65 75 148.3 75 150 C76.65 150 78.3 150 80 150 C80 151.65 80 153.3 80 155 C83.3 155 86.6 155 90 155 C90 156.65 90 158.3 90 160 C91.65 160 93.3 160 95 160 C95 161.65 95 163.3 95 165 C98.3 165 101.6 165 105 165 C105 163.35 105 161.7 105 160 C106.65 160 108.3 160 110 160 C110 158.35 110 156.7 110 155 C111.65 155 113.3 155 115 155 C115 153.35 115 151.7 115 150 C116.65 150 118.3 150 120 150 C120 148.35 120 146.7 120 145 C121.65 145 123.3 145 125 145 C125 143.35 125 141.7 125 140 C126.65 140 128.3 140 130 140 C130 138.35 130 136.7 130 135 C131.65 135 133.3 135 135 135 C135 131.7 135 128.4 135 125 C136.65 125 138.3 125 140 125 C140 123.35 140 121.7 140 120 C141.65 120 143.3 120 145 120 C145 118.35 145 116.7 145 115 C146.65 115 148.3 115 150 115 C150 113.35 150 111.7 150 110 C151.65 110 153.3 110 155 110 C155 108.35 155 106.7 155 105 C156.65 105 158.3 105 160 105 C160 103.35 160 101.7 160 100 C161.65 100 163.3 100 165 100 C165 98.35 165 96.7 165 95 C166.65 95 168.3 95 170 95 C170 93.35 170 91.7 170 90 C171.65 90 173.3 90 175 90 C175 88.35 175 86.7 175 85 C176.65 85 178.3 85 180 85 C180 83.35 180 81.7 180 80 C181.65 80 183.3 80 185 80 C185 78.35 185 76.7 185 75 C186.65 75 188.3 75 190 75 C190 71.7 190 68.4 190 65 C191.65 65 193.3 65 195 65 C195 63.35 195 61.7 195 60 C196.65 60 198.3 60 200 60 C200 58.35 200 56.7 200 55 C201.65 55 203.3 55 205 55 C205 53.35 205 51.7 205 50 C206.65 50 208.3 50 210 50 C210 53.3 210 56.6 210 60 C213.3 60 216.6 60 220 60 C220 71.55 220 83.1 220 95 C216.7 95 213.4 95 210 95 C210 108.2 210 121.4 210 135 C206.7 135 203.4 135 200 135 C200 138.3 200 141.6 200 145 C193.4 145 186.8 145 180 145 C180 148.3 180 151.6 180 155 C175.05 155 170.1 155 165 155 C165 156.65 165 158.3 165 160 C155.1 160 145.2 160 135 160 C135 161.65 135 163.3 135 165 C126.75 165 118.5 165 110 165 C110 166.65 110 168.3 110 170 C103.4 170 96.8 170 90 170 C90 168.35 90 166.7 90 165 C78.45 165 66.9 165 55 165 C55 163.35 55 161.7 55 160 C48.4 160 41.8 160 35 160 C35 158.35 35 156.7 35 155 C26.75 155 18.5 155 10 155 C10 153.35 10 151.7 10 150 C5.05 150 0.1 150 -5 150 C-5 148.35 -5 146.7 -5 145 C-9.95 145 -14.9 145 -20 145 C-20 143.35 -20 141.7 -20 140 C-23.3 140 -26.6 140 -30 140 C-30 136.7 -30 133.4 -30 130 C-33.3 130 -36.6 130 -40 130 C-40 125.05 -40 120.1 -40 115 C-43.3 115 -46.6 115 -50 115 C-50 96.85 -50 78.7 -50 60 C-46.7 60 -43.4 60 -40 60 C-40 53.4 -40 46.8 -40 40 C-36.7 40 -33.4 40 -30 40 C-30 36.7 -30 33.4 -30 30 C-26.7 30 -23.4 30 -20 30 C-20 26.7 -20 23.4 -20 20 C-16.7 20 -13.4 20 -10 20 C-10 16.7 -10 13.4 -10 10 C-6.7 10 -3.4 10 0 10 C0 6.7 0 3.4 0 0 Z " fill="#FFFFFF" transform="translate(60,5)"/>
<path d="M0 0 C3.3 0 6.6 0 10 0 C10 1.65 10 3.3 10 5 C11.65 5 13.3 5 15 5 C15 8.3 15 11.6 15 15 C13.35 15 11.7 15 10 15 C10 16.65 10 18.3 10 20 C8.35 20 6.7 20 5 20 C5 21.65 5 23.3 5 25 C3.35 25 1.7 25 0 25 C0 26.65 0 28.3 0 30 C-1.65 30 -3.3 30 -5 30 C-5 31.65 -5 33.3 -5 35 C-6.65 35 -8.3 35 -10 35 C-10 38.3 -10 41.6 -10 45 C-11.65 45 -13.3 45 -15 45 C-15 46.65 -15 48.3 -15 50 C-16.65 50 -18.3 50 -20 50 C-20 51.65 -20 53.3 -20 55 C-21.65 55 -23.3 55 -25 55 C-25 56.65 -25 58.3 -25 60 C-26.65 60 -28.3 60 -30 60 C-30 61.65 -30 63.3 -30 65 C-31.65 65 -33.3 65 -35 65 C-35 66.65 -35 68.3 -35 70 C-36.65 70 -38.3 70 -40 70 C-40 71.65 -40 73.3 -40 75 C-41.65 75 -43.3 75 -45 75 C-45 76.65 -45 78.3 -45 80 C-46.65 80 -48.3 80 -50 80 C-50 81.65 -50 83.3 -50 85 C-51.65 85 -53.3 85 -55 85 C-55 86.65 -55 88.3 -55 90 C-56.65 90 -58.3 90 -60 90 C-60 91.65 -60 93.3 -60 95 C-61.65 95 -63.3 95 -65 95 C-65 98.3 -65 101.6 -65 105 C-66.65 105 -68.3 105 -70 105 C-70 106.65 -70 108.3 -70 110 C-71.65 110 -73.3 110 -75 110 C-75 111.65 -75 113.3 -75 115 C-76.65 115 -78.3 115 -80 115 C-80 116.65 -80 118.3 -80 120 C-81.65 120 -83.3 120 -85 120 C-85 121.65 -85 123.3 -85 125 C-86.65 125 -88.3 125 -90 125 C-90 126.65 -90 128.3 -90 130 C-91.65 130 -93.3 130 -95 130 C-95 131.65 -95 133.3 -95 135 C-98.3 135 -101.6 135 -105 135 C-105 133.35 -105 131.7 -105 130 C-106.65 130 -108.3 130 -110 130 C-110 128.35 -110 126.7 -110 125 C-113.3 125 -116.6 125 -120 125 C-120 123.35 -120 121.7 -120 120 C-121.65 120 -123.3 120 -125 120 C-125 118.35 -125 116.7 -125 115 C-126.65 115 -128.3 115 -130 115 C-130 113.35 -130 111.7 -130 110 C-133.3 110 -136.6 110 -140 110 C-140 108.35 -140 106.7 -140 105 C-141.65 105 -143.3 105 -145 105 C-145 103.35 -145 101.7 -145 100 C-146.65 100 -148.3 100 -150 100 C-150 98.35 -150 96.7 -150 95 C-153.3 95 -156.6 95 -160 95 C-160 93.35 -160 91.7 -160 90 C-161.65 90 -163.3 90 -165 90 C-165 88.35 -165 86.7 -165 85 C-166.65 85 -168.3 85 -170 85 C-170 83.35 -170 81.7 -170 80 C-173.3 80 -176.6 80 -180 80 C-180 78.35 -180 76.7 -180 75 C-181.65 75 -183.3 75 -185 75 C-185 73.35 -185 71.7 -185 70 C-186.65 70 -188.3 70 -190 70 C-190 68.35 -190 66.7 -190 65 C-191.65 65 -193.3 65 -195 65 C-195 61.7 -195 58.4 -195 55 C-193.35 55 -191.7 55 -190 55 C-190 53.35 -190 51.7 -190 50 C-186.7 50 -183.4 50 -180 50 C-180 51.65 -180 53.3 -180 55 C-178.35 55 -176.7 55 -175 55 C-175 56.65 -175 58.3 -175 60 C-171.7 60 -168.4 60 -165 60 C-165 61.65 -165 63.3 -165 65 C-163.35 65 -161.7 65 -160 65 C-160 66.65 -160 68.3 -160 70 C-158.35 70 -156.7 70 -155 70 C-155 71.65 -155 73.3 -155 75 C-151.7 75 -148.4 75 -145 75 C-145 76.65 -145 78.3 -145 80 C-143.35 80 -141.7 80 -140 80 C-140 81.65 -140 83.3 -140 85 C-138.35 85 -136.7 85 -135 85 C-135 86.65 -135 88.3 -135 90 C-131.7 90 -128.4 90 -125 90 C-125 91.65 -125 93.3 -125 95 C-123.35 95 -121.7 95 -120 95 C-120 96.65 -120 98.3 -120 100 C-118.35 100 -116.7 100 -115 100 C-115 101.65 -115 103.3 -115 105 C-111.7 105 -108.4 105 -105 105 C-105 106.65 -105 108.3 -105 110 C-101.7 110 -98.4 110 -95 110 C-95 108.35 -95 106.7 -95 105 C-93.35 105 -91.7 105 -90 105 C-90 103.35 -90 101.7 -90 100 C-88.35 100 -86.7 100 -85 100 C-85 96.7 -85 93.4 -85 90 C-83.35 90 -81.7 90 -80 90 C-80 88.35 -80 86.7 -80 85 C-78.35 85 -76.7 85 -75 85 C-75 83.35 -75 81.7 -75 80 C-73.35 80 -71.7 80 -70 80 C-70 78.35 -70 76.7 -70 75 C-68.35 75 -66.7 75 -65 75 C-65 73.35 -65 71.7 -65 70 C-63.35 70 -61.7 70 -60 70 C-60 68.35 -60 66.7 -60 65 C-58.35 65 -56.7 65 -55 65 C-55 63.35 -55 61.7 -55 60 C-53.35 60 -51.7 60 -50 60 C-50 58.35 -50 56.7 -50 55 C-48.35 55 -46.7 55 -45 55 C-45 53.35 -45 51.7 -45 50 C-43.35 50 -41.7 50 -40 50 C-40 48.35 -40 46.7 -40 45 C-38.35 45 -36.7 45 -35 45 C-35 43.35 -35 41.7 -35 40 C-33.35 40 -31.7 40 -30 40 C-30 36.7 -30 33.4 -30 30 C-28.35 30 -26.7 30 -25 30 C-25 28.35 -25 26.7 -25 25 C-23.35 25 -21.7 25 -20 25 C-20 23.35 -20 21.7 -20 20 C-18.35 20 -16.7 20 -15 20 C-15 18.35 -15 16.7 -15 15 C-13.35 15 -11.7 15 -10 15 C-10 13.35 -10 11.7 -10 10 C-8.35 10 -6.7 10 -5 10 C-5 8.35 -5 6.7 -5 5 C-3.35 5 -1.7 5 0 5 C0 3.35 0 1.7 0 0 Z " fill="#000000" transform="translate(260,35)"/>
<path d="M0 0 C13.2 0 26.4 0 40 0 C40 3.3 40 6.6 40 10 C43.3 10 46.6 10 50 10 C50 13.3 50 16.6 50 20 C53.3 20 56.6 20 60 20 C60 23.3 60 26.6 60 30 C53.4 30 46.8 30 40 30 C40 26.7 40 23.4 40 20 C28.45 20 16.9 20 5 20 C5 23.3 5 26.6 5 30 C-3.25 30 -11.5 30 -20 30 C-20 33.3 -20 36.6 -20 40 C-23.3 40 -26.6 40 -30 40 C-30 43.3 -30 46.6 -30 50 C-33.3 50 -36.6 50 -40 50 C-40 53.3 -40 56.6 -40 60 C-49.9 60 -59.8 60 -70 60 C-70 56.7 -70 53.4 -70 50 C-73.3 50 -76.6 50 -80 50 C-80 46.7 -80 43.4 -80 40 C-83.3 40 -86.6 40 -90 40 C-90 33.4 -90 26.8 -90 20 C-83.4 20 -76.8 20 -70 20 C-70 23.3 -70 26.6 -70 30 C-63.4 30 -56.8 30 -50 30 C-50 26.7 -50 23.4 -50 20 C-43.4 20 -36.8 20 -30 20 C-30 16.7 -30 13.4 -30 10 C-20.1 10 -10.2 10 0 10 C0 6.7 0 3.4 0 0 Z " fill="#CBDBFC" transform="translate(220,5)"/>
<path d="M0 0 C3.3 0 6.6 0 10 0 C10 31.35 10 62.7 10 95 C6.7 95 3.4 95 0 95 C0 63.65 0 32.3 0 0 Z " fill="#000000" transform="translate(310,85)"/>
<path d="M0 0 C3.3 0 6.6 0 10 0 C10 31.35 10 62.7 10 95 C6.7 95 3.4 95 0 95 C0 63.65 0 32.3 0 0 Z " fill="#000000" transform="translate(0,85)"/>
<path d="M0 0 C13.2 0 26.4 0 40 0 C40 3.3 40 6.6 40 10 C26.8 10 13.6 10 0 10 C0 6.7 0 3.4 0 0 Z " fill="#000000" transform="translate(220,280)"/>
<path d="M0 0 C13.2 0 26.4 0 40 0 C40 3.3 40 6.6 40 10 C26.8 10 13.6 10 0 10 C0 6.7 0 3.4 0 0 Z " fill="#000000" transform="translate(60,280)"/>
<path d="M0 0 C13.2 0 26.4 0 40 0 C40 3.3 40 6.6 40 10 C26.8 10 13.6 10 0 10 C0 6.7 0 3.4 0 0 Z " fill="#000000" transform="translate(140,190)"/>
<path d="M0 0 C13.2 0 26.4 0 40 0 C40 3.3 40 6.6 40 10 C26.8 10 13.6 10 0 10 C0 6.7 0 3.4 0 0 Z " fill="#000000" transform="translate(220,5)"/>
<path d="M0 0 C13.2 0 26.4 0 40 0 C40 3.3 40 6.6 40 10 C26.8 10 13.6 10 0 10 C0 6.7 0 3.4 0 0 Z " fill="#000000" transform="translate(60,5)"/>
<path d="M0 0 C9.9 0 19.8 0 30 0 C30 3.3 30 6.6 30 10 C20.1 10 10.2 10 0 10 C0 6.7 0 3.4 0 0 Z " fill="#000000" transform="translate(190,15)"/>
<path d="M0 0 C9.9 0 19.8 0 30 0 C30 3.3 30 6.6 30 10 C20.1 10 10.2 10 0 10 C0 6.7 0 3.4 0 0 Z " fill="#000000" transform="translate(100,15)"/>
<path d="M0 0 C3.3 0 6.6 0 10 0 C10 6.6 10 13.2 10 20 C6.7 20 3.4 20 0 20 C0 13.4 0 6.8 0 0 Z " fill="#000000" transform="translate(260,260)"/>
<path d="M0 0 C3.3 0 6.6 0 10 0 C10 6.6 10 13.2 10 20 C6.7 20 3.4 20 0 20 C0 13.4 0 6.8 0 0 Z " fill="#000000" transform="translate(210,260)"/>
<path d="M0 0 C3.3 0 6.6 0 10 0 C10 6.6 10 13.2 10 20 C6.7 20 3.4 20 0 20 C0 13.4 0 6.8 0 0 Z " fill="#000000" transform="translate(100,260)"/>
<path d="M0 0 C3.3 0 6.6 0 10 0 C10 6.6 10 13.2 10 20 C6.7 20 3.4 20 0 20 C0 13.4 0 6.8 0 0 Z " fill="#000000" transform="translate(50,260)"/>
<path d="M0 0 C3.3 0 6.6 0 10 0 C10 6.6 10 13.2 10 20 C6.7 20 3.4 20 0 20 C0 13.4 0 6.8 0 0 Z " fill="#000000" transform="translate(270,240)"/>
<path d="M0 0 C3.3 0 6.6 0 10 0 C10 6.6 10 13.2 10 20 C6.7 20 3.4 20 0 20 C0 13.4 0 6.8 0 0 Z " fill="#000000" transform="translate(200,240)"/>
<path d="M0 0 C3.3 0 6.6 0 10 0 C10 6.6 10 13.2 10 20 C6.7 20 3.4 20 0 20 C0 13.4 0 6.8 0 0 Z " fill="#000000" transform="translate(110,240)"/>
<path d="M0 0 C3.3 0 6.6 0 10 0 C10 6.6 10 13.2 10 20 C6.7 20 3.4 20 0 20 C0 13.4 0 6.8 0 0 Z " fill="#000000" transform="translate(40,240)"/>
<path d="M0 0 C3.3 0 6.6 0 10 0 C10 6.6 10 13.2 10 20 C6.7 20 3.4 20 0 20 C0 13.4 0 6.8 0 0 Z " fill="#000000" transform="translate(280,220)"/>
<path d="M0 0 C3.3 0 6.6 0 10 0 C10 6.6 10 13.2 10 20 C6.7 20 3.4 20 0 20 C0 13.4 0 6.8 0 0 Z " fill="#000000" transform="translate(190,220)"/>
<path d="M0 0 C3.3 0 6.6 0 10 0 C10 6.6 10 13.2 10 20 C6.7 20 3.4 20 0 20 C0 13.4 0 6.8 0 0 Z " fill="#000000" transform="translate(120,220)"/>
<path d="M0 0 C3.3 0 6.6 0 10 0 C10 6.6 10 13.2 10 20 C6.7 20 3.4 20 0 20 C0 13.4 0 6.8 0 0 Z " fill="#000000" transform="translate(30,220)"/>
<path d="M0 0 C3.3 0 6.6 0 10 0 C10 6.6 10 13.2 10 20 C6.7 20 3.4 20 0 20 C0 13.4 0 6.8 0 0 Z " fill="#000000" transform="translate(290,200)"/>
<path d="M0 0 C3.3 0 6.6 0 10 0 C10 6.6 10 13.2 10 20 C6.7 20 3.4 20 0 20 C0 13.4 0 6.8 0 0 Z " fill="#000000" transform="translate(180,200)"/>
<path d="M0 0 C3.3 0 6.6 0 10 0 C10 6.6 10 13.2 10 20 C6.7 20 3.4 20 0 20 C0 13.4 0 6.8 0 0 Z " fill="#000000" transform="translate(130,200)"/>
<path d="M0 0 C3.3 0 6.6 0 10 0 C10 6.6 10 13.2 10 20 C6.7 20 3.4 20 0 20 C0 13.4 0 6.8 0 0 Z " fill="#000000" transform="translate(20,200)"/>
<path d="M0 0 C3.3 0 6.6 0 10 0 C10 6.6 10 13.2 10 20 C6.7 20 3.4 20 0 20 C0 13.4 0 6.8 0 0 Z " fill="#000000" transform="translate(300,180)"/>
<path d="M0 0 C3.3 0 6.6 0 10 0 C10 6.6 10 13.2 10 20 C6.7 20 3.4 20 0 20 C0 13.4 0 6.8 0 0 Z " fill="#000000" transform="translate(10,180)"/>
<path d="M0 0 C3.3 0 6.6 0 10 0 C10 6.6 10 13.2 10 20 C6.7 20 3.4 20 0 20 C0 13.4 0 6.8 0 0 Z " fill="#000000" transform="translate(300,65)"/>
<path d="M0 0 C3.3 0 6.6 0 10 0 C10 6.6 10 13.2 10 20 C6.7 20 3.4 20 0 20 C0 13.4 0 6.8 0 0 Z " fill="#000000" transform="translate(10,65)"/>
<path d="M0 0 C3.3 0 6.6 0 10 0 C10 6.6 10 13.2 10 20 C6.7 20 3.4 20 0 20 C0 13.4 0 6.8 0 0 Z " fill="#000000" transform="translate(290,45)"/>
<path d="M0 0 C3.3 0 6.6 0 10 0 C10 6.6 10 13.2 10 20 C6.7 20 3.4 20 0 20 C0 13.4 0 6.8 0 0 Z " fill="#000000" transform="translate(20,45)"/>
<path d="M0 0 C6.6 0 13.2 0 20 0 C20 3.3 20 6.6 20 10 C13.4 10 6.8 10 0 10 C0 6.7 0 3.4 0 0 Z " fill="#000000" transform="translate(150,35)"/>
<path d="M0 0 C6.6 0 13.2 0 20 0 C20 3.3 20 6.6 20 10 C13.4 10 6.8 10 0 10 C0 6.7 0 3.4 0 0 Z " fill="#000000" transform="translate(170,25)"/>
<path d="M0 0 C6.6 0 13.2 0 20 0 C20 3.3 20 6.6 20 10 C13.4 10 6.8 10 0 10 C0 6.7 0 3.4 0 0 Z " fill="#000000" transform="translate(130,25)"/>
<path d="M0 0 C3.3 0 6.6 0 10 0 C10 3.3 10 6.6 10 10 C6.7 10 3.4 10 0 10 C0 6.7 0 3.4 0 0 Z " fill="#000000" transform="translate(280,35)"/>
<path d="M0 0 C3.3 0 6.6 0 10 0 C10 3.3 10 6.6 10 10 C6.7 10 3.4 10 0 10 C0 6.7 0 3.4 0 0 Z " fill="#000000" transform="translate(30,35)"/>
<path d="M0 0 C3.3 0 6.6 0 10 0 C10 3.3 10 6.6 10 10 C6.7 10 3.4 10 0 10 C0 6.7 0 3.4 0 0 Z " fill="#000000" transform="translate(270,25)"/>
<path d="M0 0 C3.3 0 6.6 0 10 0 C10 3.3 10 6.6 10 10 C6.7 10 3.4 10 0 10 C0 6.7 0 3.4 0 0 Z " fill="#CBDBFC" transform="translate(260,25)"/>
<path d="M0 0 C3.3 0 6.6 0 10 0 C10 3.3 10 6.6 10 10 C6.7 10 3.4 10 0 10 C0 6.7 0 3.4 0 0 Z " fill="#000000" transform="translate(40,25)"/>
<path d="M0 0 C3.3 0 6.6 0 10 0 C10 3.3 10 6.6 10 10 C6.7 10 3.4 10 0 10 C0 6.7 0 3.4 0 0 Z " fill="#000000" transform="translate(260,15)"/>
<path d="M0 0 C3.3 0 6.6 0 10 0 C10 3.3 10 6.6 10 10 C6.7 10 3.4 10 0 10 C0 6.7 0 3.4 0 0 Z " fill="#000000" transform="translate(50,15)"/>
</svg>
